<svg width="427" height="298" viewBox="0 0 427 298" fill="none" xmlns="http://www.w3.org/2000/svg">
<path fill-rule="evenodd" clip-rule="evenodd" d="M134.5 1.94401C119.79 5.82901 108.859 12.314 97.89 23.662C85.309 36.679 10.775 120.233 7.75995 124.701C-1.35005 138.199 -1.24704 159.954 7.99196 173.643C11.702 179.141 98.4149 275.442 104.245 280.54C110.862 286.326 118.814 290.814 128.739 294.365L137.5 297.5H266.552H395.604L403.142 293.774C412.359 289.219 418.889 282.567 423.315 273.223L426.5 266.5V148.948V31.396L422.774 23.858C418.219 14.641 411.567 8.111 402.223 3.685L395.5 0.500006L268.5 0.297004C147.781 0.105004 141.154 0.186007 134.5 1.94401ZM222.5 86.917C224.868 88.025 232.604 94.942 241.463 103.87L256.425 118.95L272.463 103.169C285.181 90.654 289.352 87.14 292.616 86.194C298.899 84.372 303.097 84.746 308.919 87.647C318.02 92.182 322.348 101.599 319.916 111.575C318.832 116.025 317.165 118.068 302.647 132.75L286.579 149L302.647 165.25C317.165 179.932 318.832 181.975 319.916 186.425C322.348 196.401 318.02 205.818 308.919 210.353C303.097 213.254 298.899 213.628 292.616 211.806C289.352 210.86 285.181 207.346 272.463 194.831L256.425 179.05L241.463 194.13C232.604 203.058 224.868 209.975 222.5 211.083C209 217.404 193.092 206.953 193.022 191.718C192.985 183.756 195.142 180.51 211.248 164.283L226.416 149L211.248 133.717C195.142 117.49 192.985 114.244 193.022 106.282C193.092 91.052 209.005 80.598 222.5 86.917Z" fill="black"/>
</svg>
