<svg width="512" height="512" viewBox="0 0 512 512" fill="none" xmlns="http://www.w3.org/2000/svg">
<g clip-path="url(#clip0_1_517)">
<path d="M173.603 181.623L116.254 348H81.5811L153.827 156.047H175.976L173.603 181.623ZM221.591 348L164.11 181.623L161.605 156.047H183.886L256.396 348H221.591ZM218.822 276.809V303.044H114.408V276.809H218.822ZM389.154 285.51H422.113C421.059 298.078 417.543 309.284 411.566 319.128C405.59 328.884 397.196 336.574 386.386 342.199C375.575 347.824 362.436 350.637 346.967 350.637C335.102 350.637 324.423 348.527 314.931 344.309C305.438 340.002 297.309 333.938 290.541 326.115C283.773 318.205 278.588 308.669 274.984 297.507C271.469 286.345 269.711 273.864 269.711 260.065V244.113C269.711 230.314 271.513 217.834 275.116 206.672C278.808 195.51 284.081 185.974 290.937 178.063C297.792 170.065 306.01 163.957 315.59 159.738C325.258 155.52 336.112 153.41 348.153 153.41C363.446 153.41 376.366 156.223 386.913 161.848C397.46 167.473 405.634 175.251 411.435 185.183C417.323 195.114 420.927 206.496 422.245 219.328H389.286C388.407 211.066 386.474 203.991 383.485 198.103C380.585 192.214 376.278 187.731 370.565 184.655C364.853 181.491 357.382 179.909 348.153 179.909C340.595 179.909 334.003 181.315 328.378 184.128C322.753 186.94 318.051 191.071 314.271 196.521C310.492 201.97 307.636 208.693 305.702 216.691C303.856 224.602 302.934 233.654 302.934 243.85V260.065C302.934 269.733 303.769 278.522 305.438 286.433C307.196 294.255 309.833 300.979 313.349 306.604C316.952 312.229 321.522 316.579 327.06 319.655C332.597 322.731 339.232 324.27 346.967 324.27C356.371 324.27 363.974 322.775 369.774 319.787C375.663 316.799 380.102 312.448 383.09 306.735C386.166 300.935 388.188 293.859 389.154 285.51Z" fill="black"/>
</g>
<defs>
<clipPath id="clip0_1_517">
<rect width="512" height="512" fill="white"/>
</clipPath>
</defs>
</svg>
