<?xml version="1.0" standalone="no"?>
<!DOCTYPE svg PUBLIC "-//W3C//DTD SVG 20010904//EN"
 "http://www.w3.org/TR/2001/REC-SVG-20010904/DTD/svg10.dtd">
<svg version="1.0" xmlns="http://www.w3.org/2000/svg"
 width="512.000000pt" height="512.000000pt" viewBox="0 0 512.000000 512.000000"
 preserveAspectRatio="xMidYMid meet">

<g transform="translate(0.000000,512.000000) scale(0.100000,-0.100000)"
fill="#000000" stroke="none">
<path d="M1631 4199 c-124 -24 -249 -84 -350 -166 -65 -54 -159 -161 -833
-953 -165 -193 -215 -270 -242 -376 -20 -79 -20 -209 0 -288 32 -124 67 -171
507 -687 232 -272 442 -518 467 -546 94 -108 229 -196 375 -245 l70 -23 1263
-3 c1232 -2 1265 -2 1347 17 298 71 524 297 595 595 19 77 20 124 20 1036 0
912 -1 959 -20 1036 -71 297 -296 523 -593 594 -79 19 -120 20 -1322 19 -682
-1 -1260 -5 -1284 -10z m2550 -325 c87 -26 149 -62 210 -123 61 -61 97 -123
123 -210 14 -49 16 -158 16 -981 0 -1011 2 -967 -57 -1084 -32 -64 -125 -157
-189 -189 -119 -60 -45 -57 -1363 -57 -776 0 -1222 4 -1250 11 -75 17 -153 62
-218 124 -34 33 -254 285 -487 559 -450 528 -456 537 -456 636 0 99 6 108 456
636 233 274 453 526 487 559 65 62 130 100 207 121 34 10 333 13 1256 13 1085
1 1216 -1 1265 -15z"/>
<path d="M2274 3121 c-69 -42 -96 -110 -74 -184 10 -34 45 -75 178 -209 l166
-168 -166 -167 c-92 -93 -171 -181 -177 -196 -37 -96 12 -191 110 -217 75 -21
98 -6 286 182 l173 173 172 -172 c145 -143 180 -173 216 -182 113 -31 219 69
197 186 -6 32 -33 64 -183 216 l-177 177 173 173 c186 186 199 207 182 282
-21 93 -97 139 -197 120 -31 -6 -65 -34 -210 -178 l-174 -171 -167 166 c-92
91 -177 171 -189 177 -34 17 -104 13 -139 -8z"/>
</g>
</svg>
