<svg width="512" height="512" viewBox="0 0 512 512" fill="none" xmlns="http://www.w3.org/2000/svg">
<rect x="214" y="242" width="22" height="86" rx="4" transform="rotate(-180 214 242)" fill="black"/>
<rect x="246" y="188" width="22" height="86" rx="4" transform="rotate(90 246 188)" fill="black"/>
<rect x="352" y="302" width="22" height="86" rx="4" transform="rotate(90 352 302)" fill="black"/>
<path fill-rule="evenodd" clip-rule="evenodd" d="M319.352 173.831C316.885 174.315 314.468 175.591 312.491 177.449C311.24 178.626 188.703 314.763 172.718 332.736C170.601 335.117 170.348 336.462 171.766 337.795C172.65 338.625 172.92 338.644 183.471 338.644C193.449 338.644 194.436 338.583 196.44 337.833C197.633 337.386 199.125 336.587 199.757 336.055C200.987 335.02 340.764 178.789 341.299 177.851C341.957 176.699 341.712 174.863 340.802 174.127C339.994 173.473 339.092 173.414 330.487 173.453C325.301 173.476 320.29 173.646 319.352 173.831Z" fill="black"/>
</svg>
