<svg width="512" height="512" viewBox="0 0 512 512" fill="none" xmlns="http://www.w3.org/2000/svg">
<path fill-rule="evenodd" clip-rule="evenodd" d="M48 95C48 69.0426 69.0426 48 95 48H417C442.957 48 464 69.0426 464 95V336C464 344.837 456.837 352 448 352C439.163 352 432 344.837 432 336V103.5C432 90.5213 421.479 80 408.5 80H103.5C90.5213 80 80 90.5213 80 103.5V408.5C80 421.479 90.5213 432 103.5 432H408.5C421.479 432 432 421.479 432 408.5V400C432 391.163 439.163 384 448 384C456.837 384 464 391.163 464 400V417C464 442.957 442.957 464 417 464H95C69.0426 464 48 442.957 48 417V95Z" fill="#374F6B"/>
<path fill-rule="evenodd" clip-rule="evenodd" d="M103 80C90.2975 80 80 90.2975 80 103V409C80 421.703 90.2975 432 103 432H109.333L425.554 87.0322C421.371 82.6966 415.5 80 409 80H103Z" fill="#3FC1C9"/>
<path d="M114.623 119.536C119.321 112.894 125.882 107.386 134.306 103.012C142.892 98.476 152.774 96.208 163.952 96.208C175.13 96.208 184.85 98.395 193.112 102.769C201.536 107.143 208.097 112.57 212.795 119.05C217.655 125.53 221.543 133.144 224.459 141.892C229.319 156.472 231.749 171.943 231.749 188.305C231.749 217.627 225.431 240.874 212.795 258.046C208.097 264.526 201.536 269.872 193.112 274.084C184.85 278.296 175.211 280.402 164.195 280.402C153.179 280.402 143.378 278.296 134.792 274.084C126.368 269.71 119.726 264.364 114.866 258.046C110.168 251.728 106.28 244.195 103.202 235.447C98.5036 221.515 96.1546 205.72 96.1546 188.062C96.1546 171.862 98.0176 158.011 101.744 146.509C105.632 135.007 109.925 126.016 114.623 119.536ZM163.709 237.148C180.395 237.148 188.738 221.272 188.738 189.52V188.062C188.738 155.5 180.476 139.219 163.952 139.219C147.428 139.219 139.166 155.581 139.166 188.305C139.166 220.867 147.347 237.148 163.709 237.148Z" fill="#374F6B"/>
<path d="M347.62 251.603L411.61 383.849C414.296 389.221 415.639 393.25 415.639 395.936C415.639 401.624 411.057 406.759 401.893 411.341C396.521 414.027 392.255 415.37 389.095 415.37C386.093 415.37 383.565 414.659 381.511 413.237C379.615 411.815 378.193 410.314 377.245 408.734C376.455 407.154 375.27 404.784 373.69 401.624L361.366 376.028H295.717L283.393 401.624C281.813 404.784 280.549 407.075 279.601 408.497C278.811 409.919 277.389 411.42 275.335 413C273.439 414.422 270.911 415.133 267.751 415.133C264.749 415.133 260.562 413.79 255.19 411.104C246.026 406.68 241.444 401.624 241.444 395.936C241.444 393.25 242.787 389.221 245.473 383.849L309.463 251.366C311.201 247.732 313.808 244.809 317.284 242.597C320.918 240.385 324.71 239.279 328.66 239.279C337.192 239.279 343.512 243.387 347.62 251.603ZM328.423 308.483L312.781 340.952H344.302L328.423 308.483Z" fill="#374F6B"/>
</svg>
