<svg width="512" height="512" viewBox="0 0 512 512" fill="none" xmlns="http://www.w3.org/2000/svg">
<path fill-rule="evenodd" clip-rule="evenodd" d="M199.573 156.39C192.981 157.381 189.41 158.461 184.138 161.056C174.074 166.011 166.22 175.174 162.5 186.301C160.469 192.38 159.803 197.099 160.048 203.683C160.654 219.938 168.92 234.039 182.348 241.722C193.64 248.183 210.449 249.685 223.792 245.424C236.77 241.281 246.849 231.706 251.648 218.963C253.831 213.169 254.593 208.847 254.62 202.121C254.654 193.662 253.385 188.098 249.722 180.637C243.54 168.048 231.806 159.355 217.542 156.799C212.7 155.932 203.944 155.732 199.573 156.39ZM319.352 173.831C316.885 174.315 314.468 175.591 312.491 177.449C311.24 178.626 188.703 314.763 172.718 332.737C170.601 335.117 170.348 336.462 171.766 337.795C172.65 338.625 172.92 338.644 183.471 338.644C193.449 338.644 194.436 338.583 196.44 337.833C197.633 337.387 199.125 336.587 199.757 336.055C200.987 335.02 340.764 178.789 341.299 177.851C341.957 176.699 341.712 174.863 340.802 174.127C339.994 173.473 339.092 173.414 330.487 173.453C325.301 173.476 320.29 173.646 319.352 173.831ZM213.359 177.931C218.034 178.885 221.682 180.829 224.933 184.1C229.793 188.99 231.928 194.404 231.963 201.926C231.98 205.568 231.812 206.972 231.075 209.347C229.764 213.575 228.046 216.563 225.364 219.28C222.574 222.107 220.49 223.391 216.327 224.848C213.484 225.844 212.792 225.926 207.386 225.918C202.083 225.91 201.227 225.81 198.371 224.859C190.645 222.288 184.845 216.014 182.768 207.98C181.973 204.906 181.973 198.164 182.768 195.09C184.723 187.527 189.851 181.69 196.855 179.054C201.595 177.27 207.989 176.835 213.359 177.931ZM295.863 266.385C291.586 267.14 286.105 268.896 282.796 270.571C270.388 276.85 261.539 289.452 259.563 303.658C256.768 323.751 266.591 342.949 283.868 351.157C294.463 356.191 308.643 357.168 320.667 353.692C336.988 348.974 348.727 335.475 351.528 318.204C353.065 308.728 351.466 298.232 347.189 289.734C341.611 278.648 331.502 270.46 319.509 267.315C312.439 265.462 303.158 265.096 295.863 266.385ZM314.309 287.37C322.182 290.083 327.448 295.978 329.447 304.313C333.046 319.328 324.522 332.65 309.966 334.76C296.208 336.754 284.87 329.492 281.81 316.725C278.561 303.171 285.689 290.067 298.011 286.945C301.594 286.037 302.377 285.963 306.87 286.108C310.213 286.217 311.691 286.467 314.309 287.37Z" fill="black"/>
</svg>
