<svg width="512" height="512" viewBox="0 0 512 512" fill="none" xmlns="http://www.w3.org/2000/svg">
<g clip-path="url(#clip0_1_519)">
<path d="M300.692 285.51H333.651C332.597 298.078 329.081 309.284 323.104 319.128C317.128 328.884 308.734 336.574 297.924 342.199C287.113 347.824 273.974 350.637 258.505 350.637C246.64 350.637 235.961 348.527 226.469 344.309C216.977 340.002 208.847 333.938 202.079 326.115C195.312 318.205 190.126 308.669 186.522 297.507C183.007 286.345 181.249 273.864 181.249 260.065V244.113C181.249 230.314 183.051 217.834 186.654 206.672C190.346 195.51 195.619 185.974 202.475 178.063C209.33 170.065 217.548 163.957 227.128 159.738C236.796 155.52 247.65 153.41 259.691 153.41C274.984 153.41 287.904 156.223 298.451 161.848C308.998 167.473 317.172 175.251 322.973 185.183C328.861 195.114 332.465 206.496 333.783 219.328H300.824C299.945 211.066 298.012 203.991 295.023 198.103C292.123 192.214 287.816 187.731 282.104 184.655C276.391 181.491 268.92 179.909 259.691 179.909C252.133 179.909 245.541 181.315 239.916 184.128C234.291 186.94 229.589 191.071 225.81 196.521C222.03 201.97 219.174 208.693 217.24 216.691C215.395 224.602 214.472 233.654 214.472 243.85V260.065C214.472 269.733 215.307 278.522 216.977 286.433C218.734 294.255 221.371 300.979 224.887 306.604C228.49 312.229 233.061 316.579 238.598 319.655C244.135 322.731 250.771 324.27 258.505 324.27C267.909 324.27 275.512 322.775 281.312 319.787C287.201 316.799 291.64 312.448 294.628 306.735C297.704 300.935 299.726 293.859 300.692 285.51Z" fill="black"/>
</g>
<defs>
<clipPath id="clip0_1_519">
<rect width="512" height="512" fill="white"/>
</clipPath>
</defs>
</svg>
